<svg width="69" height="11" viewBox="0 0 69 11" fill="none" xmlns="http://www.w3.org/2000/svg">
<g clip-path="url(#clip0_313_118)">
<path d="M10.4684 4.08249C10.3875 3.82968 10.1459 3.65592 9.8056 3.60572L7.1066 3.20734L5.89957 0.723356C5.74735 0.410124 5.50998 0.230469 5.2483 0.230469C4.98662 0.230469 4.74925 0.410124 4.59705 0.723356L3.39006 3.20732L0.69102 3.6057C0.350654 3.6559 0.109085 3.82968 0.0282063 4.08245C-0.0526516 4.33523 0.0422294 4.62002 0.288473 4.86383L2.24151 6.79731L1.78045 9.52757C1.71983 9.88669 1.82278 10.1015 1.91986 10.2184C2.0334 10.3551 2.19903 10.4305 2.38625 10.4305C2.52779 10.4305 2.67854 10.3883 2.83421 10.3052L5.2483 9.0161L7.66239 10.3051C7.8181 10.3883 7.96883 10.4304 8.11039 10.4304H8.11043C8.29767 10.4304 8.4633 10.3551 8.57684 10.2183C8.67389 10.1015 8.77687 9.88667 8.71623 9.52752L8.25511 6.79733L10.2081 4.86387C10.4544 4.62006 10.5493 4.33525 10.4684 4.08249Z" fill="#FF8412"/>
</g>
<g clip-path="url(#clip1_313_118)">
<path d="M24.9015 4.08249C24.8206 3.82968 24.579 3.65592 24.2387 3.60572L21.5397 3.20734L20.3327 0.723356C20.1805 0.410124 19.9431 0.230469 19.6814 0.230469C19.4197 0.230469 19.1824 0.410124 19.0302 0.723356L17.8232 3.20732L15.1241 3.6057C14.7838 3.6559 14.5422 3.82968 14.4613 4.08245C14.3805 4.33523 14.4753 4.62002 14.7216 4.86383L16.6746 6.79731L16.2136 9.52757C16.1529 9.88669 16.2559 10.1015 16.353 10.2184C16.4665 10.3551 16.6321 10.4305 16.8194 10.4305C16.9609 10.4305 17.1116 10.3883 17.2673 10.3052L19.6814 9.0161L22.0955 10.3051C22.2512 10.3883 22.4019 10.4304 22.5435 10.4304H22.5435C22.7308 10.4304 22.8964 10.3551 23.0099 10.2183C23.107 10.1015 23.21 9.88667 23.1493 9.52752L22.6882 6.79733L24.6412 4.86387C24.8875 4.62006 24.9824 4.33525 24.9015 4.08249Z" fill="#FF8412"/>
</g>
<g clip-path="url(#clip2_313_118)">
<path d="M39.3341 4.08249C39.2533 3.82968 39.0117 3.65592 38.6713 3.60572L35.9723 3.20734L34.7653 0.723356C34.6131 0.410124 34.3757 0.230469 34.114 0.230469C33.8523 0.230469 33.615 0.410124 33.4628 0.723356L32.2558 3.20732L29.5567 3.6057C29.2164 3.6559 28.9748 3.82968 28.8939 4.08245C28.8131 4.33523 28.908 4.62002 29.1542 4.86383L31.1072 6.79731L30.6462 9.52757C30.5855 9.88669 30.6885 10.1015 30.7856 10.2184C30.8991 10.3551 31.0648 10.4305 31.252 10.4305C31.3935 10.4305 31.5443 10.3883 31.6999 10.3052L34.114 9.0161L36.5281 10.3051C36.6838 10.3883 36.8345 10.4304 36.9761 10.4304H36.9762C37.1634 10.4304 37.329 10.3551 37.4426 10.2183C37.5396 10.1015 37.6426 9.88667 37.582 9.52752L37.1208 6.79733L39.0738 4.86387C39.3201 4.62006 39.415 4.33525 39.3341 4.08249Z" fill="#FF8412"/>
</g>
<g clip-path="url(#clip3_313_118)">
<path d="M53.7667 4.08249C53.6859 3.82968 53.4443 3.65592 53.1039 3.60572L50.4049 3.20734L49.1979 0.723356C49.0457 0.410124 48.8083 0.230469 48.5466 0.230469C48.285 0.230469 48.0476 0.410124 47.8954 0.723356L46.6884 3.20732L43.9894 3.6057C43.649 3.6559 43.4074 3.82968 43.3265 4.08245C43.2457 4.33523 43.3406 4.62002 43.5868 4.86383L45.5398 6.79731L45.0788 9.52757C45.0182 9.88669 45.1211 10.1015 45.2182 10.2184C45.3317 10.3551 45.4974 10.4305 45.6846 10.4305C45.8261 10.4305 45.9769 10.3883 46.1325 10.3052L48.5466 9.0161L50.9607 10.3051C51.1164 10.3883 51.2672 10.4304 51.4087 10.4304H51.4088C51.596 10.4304 51.7616 10.3551 51.8752 10.2183C51.9722 10.1015 52.0752 9.88667 52.0146 9.52752L51.5534 6.79733L53.5065 4.86387C53.7527 4.62006 53.8476 4.33525 53.7667 4.08249Z" fill="#FF8412"/>
</g>
<g clip-path="url(#clip4_313_118)">
<path d="M68.1998 4.08249C68.119 3.82968 67.8774 3.65592 67.537 3.60572L64.838 3.20734L63.631 0.723356C63.4788 0.410124 63.2414 0.230469 62.9797 0.230469C62.7181 0.230469 62.4807 0.410124 62.3285 0.723356L61.1215 3.20732L58.4225 3.6057C58.0821 3.6559 57.8405 3.82968 57.7597 4.08245C57.6788 4.33523 57.7737 4.62002 58.0199 4.86383L59.973 6.79731L59.5119 9.52757C59.4513 9.88669 59.5542 10.1015 59.6513 10.2184C59.7648 10.3551 59.9305 10.4305 60.1177 10.4305C60.2592 10.4305 60.41 10.3883 60.5657 10.3052L62.9797 9.0161L65.3938 10.3051C65.5495 10.3883 65.7003 10.4304 65.8418 10.4304H65.8419C66.0291 10.4304 66.1947 10.3551 66.3083 10.2183C66.4053 10.1015 66.5083 9.88667 66.4477 9.52752L65.9866 6.79733L67.9396 4.86387C68.1859 4.62006 68.2807 4.33525 68.1998 4.08249Z" fill="#C9C9C9"/>
</g>
<defs>
<clipPath id="clip0_313_118">
<rect width="10.4966" height="10.6609" fill="white"/>
</clipPath>
<clipPath id="clip1_313_118">
<rect width="10.4966" height="10.6609" fill="white" transform="translate(14.4331)"/>
</clipPath>
<clipPath id="clip2_313_118">
<rect width="10.4966" height="10.6609" fill="white" transform="translate(28.8657)"/>
</clipPath>
<clipPath id="clip3_313_118">
<rect width="10.4966" height="10.6609" fill="white" transform="translate(43.2983)"/>
</clipPath>
<clipPath id="clip4_313_118">
<rect width="10.4966" height="10.6609" fill="white" transform="translate(57.7314)"/>
</clipPath>
</defs>
</svg>
